<?xml version="1.0" encoding="UTF-8"?><svg id="uuid-8516dedc-bbac-480b-a113-73ebbdcd7f48" xmlns="http://www.w3.org/2000/svg" width="29.66mm" height="28.44mm" viewBox="0 0 84.09 80.63"><defs><style>.uuid-345e3f89-a7ba-4dcc-8c00-ecc5cf109979{fill:#fff;stroke-width:0px;}</style></defs><path class="uuid-345e3f89-a7ba-4dcc-8c00-ecc5cf109979" d="M52.68,80.59c0-6.81,0-13.14,0-19.46,0-3.02-.41-3.41-3.5-3.42-4.75-.01-9.5,0-14.24,0-3.17.01-3.49.3-3.51,3.39-.03,5.5-.02,11-.02,16.49,0,.89,0,1.79,0,2.94-6.51,0-12.73.02-18.96-.01-1.54,0-1.86-1.07-1.86-2.39.02-4.66,0-9.33,0-13.99,0-6.25-.1-12.5.07-18.74.04-1.3.72-2.94,1.67-3.8,9.08-8.21,18.31-16.25,27.43-24.41,1.72-1.54,2.9-1.52,4.64.05,9.17,8.23,18.47,16.32,27.65,24.55.8.72,1.45,2.09,1.46,3.16.11,10.91.03,21.82.1,32.74.01,2.16-.75,2.97-2.92,2.94-5.89-.09-11.78-.03-17.99-.03Z"/><path class="uuid-345e3f89-a7ba-4dcc-8c00-ecc5cf109979" d="M42.03,8.07c-2.59,2.34-5.05,4.56-7.5,6.79-9.18,8.35-18.35,16.7-27.53,25.05-.43.39-.85.8-1.32,1.15-1.63,1.2-3.24,1.25-4.7-.25-1.36-1.39-1.3-3.42.27-4.88,3.4-3.19,6.88-6.29,10.33-9.43C20.62,18.25,29.68,10.02,38.74,1.79c2.57-2.33,3.93-2.39,6.44-.12,12.4,11.24,24.79,22.5,37.16,33.76,2.03,1.85,2.28,3.84.78,5.41-1.49,1.57-3.38,1.44-5.48-.47-11.47-10.41-22.93-20.83-34.4-31.24-.31-.28-.62-.54-1.23-1.06Z"/><path class="uuid-345e3f89-a7ba-4dcc-8c00-ecc5cf109979" d="M35.31,61.65h13.51v18.71h-13.51v-18.71Z"/></svg>